# xmcd
#
# Track frame offsets: 
#        150
#        19579
#        43878
#        58843
#        77278
#        93141
#        106972
#        121719
#        134722
#        150738
#        167443
#        183501
#        196890
#
# Disc length: 2843 seconds
#
# Revision: 0
# Processed by: cddbd v1.5.2PL0 Copyright (c) Steve Scherf et al.
# Submitted via: ExactAudioCopy v0.95b4
#
DISCID=9e0b190d
DTITLE=Corvus - An Affair With Tragedy
DYEAR=2008
DGENRE=Metal
TTITLE0=The Mortal Clay
TTITLE1=An Affair With Tragedy
TTITLE2=Catastrophic Masterpiece
TTITLE3=Give
TTITLE4=Broken Halo
TTITLE5=Typical
TTITLE6=What We Are
TTITLE7=Karma Suicide
TTITLE8=Subtraction Lullaby
TTITLE9=Filthy
TTITLE10=Opaque Windows
TTITLE11=Black Roses
TTITLE12=Hope
EXTD=
EXTT0=
EXTT1=
EXTT2=
EXTT3=
EXTT4=
EXTT5=
EXTT6=
EXTT7=
EXTT8=
EXTT9=
EXTT10=
EXTT11=
EXTT12=
PLAYORDER=
